<?xml version="1.0" encoding="utf-8"?>
<!-- Generator: Adobe Illustrator 18.0.0, SVG Export Plug-In . SVG Version: 6.00 Build 0)  -->
<!DOCTYPE svg PUBLIC "-//W3C//DTD SVG 1.1//EN" "http://www.w3.org/Graphics/SVG/1.1/DTD/svg11.dtd">
<svg version="1.1" id="Capa_1" xmlns="http://www.w3.org/2000/svg" xmlns:xlink="http://www.w3.org/1999/xlink" x="0px" y="0px"
	 viewBox="51.9 114 920.2 193" enable-background="new 51.9 114 920.2 193" xml:space="preserve">
<g>
	<text transform="matrix(1 0 0 1 217.4478 253.2734)" fill="#FFFFFF" font-family="'Montserrat-Bold'" font-size="127.901">Motor Park</text>
	<g>
		<path opacity="0.7" fill="#FFFFFF" d="M188,176.1l-75.3,75.3c-4.3,4.3-11.3,4.3-15.6,0l0,0c-4.3-4.3-4.3-11.3,0-15.6l75.3-75.3
			c4.3-4.3,11.3-4.3,15.6,0l0,0C192.3,164.8,192.3,171.8,188,176.1z"/>
		<path fill="#FFFFFF" d="M161.3,202.8l-23.9,23.9c-4.3,4.3-11.3,4.3-15.6,0l0,0c-4.3-4.3-4.3-11.3,0-15.6l23.9-23.9
			c4.3-4.3,11.3-4.3,15.6,0l0,0C165.6,191.5,165.6,198.5,161.3,202.8z"/>
		<path opacity="0.7" fill="#FFFFFF" d="M149.4,168.7l-46.1,46.1c-4.3,4.3-11.3,4.3-15.6,0l0,0c-4.3-4.3-4.3-11.3,0-15.6l46.1-46.1
			c4.3-4.3,11.3-4.3,15.6,0l0,0C153.7,157.5,153.7,164.5,149.4,168.7z"/>
		<path fill="#FFFFFF" d="M133.3,184.9l-13.8,13.8c-4.3,4.3-11.3,4.3-15.6,0l0,0c-4.3-4.3-4.3-11.3,0-15.6l13.8-13.8
			c4.3-4.3,11.3-4.3,15.6,0l0,0C137.6,173.6,137.6,180.6,133.3,184.9z"/>
		<path opacity="0.7" fill="#FFFFFF" d="M195.4,213.7l-46.1,46.1c-4.3,4.3-11.3,4.3-15.6,0l0,0c-4.3-4.3-4.3-11.3,0-15.6l46.1-46.1
			c4.3-4.3,11.3-4.3,15.6,0l0,0C199.7,202.5,199.7,209.5,195.4,213.7z"/>
		<path fill="#FFFFFF" d="M175.4,233.7l-6.1,6.1c-4.3,4.3-11.3,4.3-15.6,0l0,0c-4.3-4.3-4.3-11.3,0-15.6l6.1-6.1
			c4.3-4.3,11.3-4.3,15.6,0l0,0C179.7,222.5,179.7,229.5,175.4,233.7z"/>
	</g>
</g>
</svg>
