<?xml version="1.0" encoding="utf-8"?>
<!-- Generator: Adobe Illustrator 23.0.6, SVG Export Plug-In . SVG Version: 6.00 Build 0)  -->
<svg version="1.1" id="Capa_1" xmlns="http://www.w3.org/2000/svg" xmlns:xlink="http://www.w3.org/1999/xlink" x="0px" y="0px"
	 viewBox="0 0 920.2 193" style="enable-background:new 0 0 920.2 193;" xml:space="preserve">
<style type="text/css">
	.st0{enable-background:new    ;}
	.st1{fill:#FFFFFF;}
	.st2{opacity:0.7;fill:#FFFFFF;enable-background:new    ;}
</style>
<g>
	<g class="st0">
		<path class="st1" d="M300.7,139.3h-19.8V79.2l-23.7,60.1h-16.4l-23.7-59.3v59.3H198V48.6h26.3l24.9,61.3L273,48.6h27.8V139.3z"/>
		<path class="st1" d="M347.7,73.8c9.6,0,17.7,3.2,24.1,9.5c6.4,6.3,9.7,14.4,9.7,24.2c0,9.8-3.2,17.9-9.7,24.2
			c-6.4,6.4-14.5,9.5-24.1,9.5c-9.6,0-17.6-3.2-24-9.6c-6.5-6.4-9.7-14.5-9.7-24.2c0-9.7,3.2-17.8,9.7-24.1
			C330.1,77,338.1,73.8,347.7,73.8z M347.7,123.3c4,0,7.4-1.4,10.2-4.1c2.8-2.7,4.2-6.7,4.2-11.8s-1.4-9-4.2-11.7
			c-2.8-2.7-6.2-4-10.2-4c-3.9,0-7.3,1.4-10.1,4.1c-2.8,2.7-4.2,6.6-4.2,11.6c0,5,1.4,8.9,4.2,11.7
			C340.4,121.9,343.7,123.3,347.7,123.3z"/>
		<path class="st1" d="M417.1,57.2v18.5h12.4v17h-12.4v23.8c0,4.4,2.3,6.7,7,6.7c1.5,0,3.2-0.2,5.1-0.6v16.1
			c-2.4,1.2-5.8,1.8-10.1,1.8c-6.6,0-11.7-1.8-15.5-5.5c-3.8-3.7-5.7-8.7-5.7-15V92.7h-11.3v-17h3.2c3.2,0,5.7-1,7.4-2.9
			c1.7-1.9,2.5-4.4,2.5-7.5v-8.2H417.1z"/>
		<path class="st1" d="M471.7,73.8c9.6,0,17.7,3.2,24.1,9.5c6.4,6.3,9.7,14.4,9.7,24.2c0,9.8-3.2,17.9-9.7,24.2
			c-6.4,6.4-14.5,9.5-24.1,9.5c-9.6,0-17.6-3.2-24-9.6c-6.5-6.4-9.7-14.5-9.7-24.2c0-9.7,3.2-17.8,9.7-24.1
			C454.2,77,462.2,73.8,471.7,73.8z M471.7,123.3c4,0,7.4-1.4,10.2-4.1c2.8-2.7,4.2-6.7,4.2-11.8s-1.4-9-4.2-11.7
			c-2.8-2.7-6.2-4-10.2-4c-3.9,0-7.3,1.4-10.1,4.1c-2.8,2.7-4.2,6.6-4.2,11.6c0,5,1.4,8.9,4.2,11.7
			C464.4,121.9,467.8,123.3,471.7,123.3z"/>
		<path class="st1" d="M558.4,75.7v19.2c-1.8-0.4-3.8-0.6-6.1-0.6c-4.3,0-7.9,1.4-10.7,4.2c-2.8,2.8-4.2,7.2-4.2,13v27.8H518V75.7
			h18.8v8.6c1.5-3.2,3.9-5.6,7-7c3.2-1.4,6.3-2.2,9.5-2.2C555.3,75.1,557,75.3,558.4,75.7z"/>
		<path class="st1" d="M636.5,106.7h-13.9v32.6h-20.2V48.6h34.1c9.2,0,16.7,2.7,22.4,8.2c5.8,5.5,8.6,12.4,8.6,20.8
			c0,8.6-2.9,15.6-8.6,21C653.1,104,645.7,106.7,636.5,106.7z M622.6,89.3h11.8c3.8,0,6.9-1,9.3-3.1c2.4-2.1,3.6-4.9,3.6-8.4
			c0-3.6-1.2-6.4-3.5-8.5c-2.3-2.1-5.5-3.1-9.4-3.1h-11.8V89.3z"/>
		<path class="st1" d="M674.1,121.8c0-5.4,1.7-9.7,5.2-13c3.5-3.3,8-5.4,13.6-6.2l15-2.3c3.1-0.4,4.6-1.9,4.6-4.3
			c0-2-0.8-3.6-2.5-4.9c-1.7-1.3-3.9-2-6.8-2c-3.2,0-5.8,0.9-7.7,2.7c-1.9,1.8-3,4-3.1,6.6l-16.9-3.5c0.4-5.3,3-10.1,7.9-14.5
			c4.8-4.4,11.5-6.6,20-6.6c9.6,0,16.7,2.3,21.3,6.9c4.6,4.6,6.8,10.5,6.8,17.7v31.1c0,4,0.3,7.3,0.8,9.8h-17.5
			c-0.4-1.7-0.6-4.1-0.6-7.2c-3.7,6-9.6,9-17.9,9c-6.7,0-12.1-1.9-16.1-5.7C676,131.6,674.1,127,674.1,121.8z M700.8,127
			c3.3,0,6.1-1,8.3-2.9c2.2-2,3.3-5.2,3.3-9.7v-2.8l-12,1.9c-4.8,0.8-7.2,3.1-7.2,7c0,1.8,0.6,3.3,1.9,4.6
			C696.3,126.4,698.2,127,700.8,127z"/>
		<path class="st1" d="M788.1,75.7v19.2c-1.8-0.4-3.8-0.6-6.1-0.6c-4.3,0-7.9,1.4-10.7,4.2c-2.8,2.8-4.2,7.2-4.2,13v27.8h-19.4V75.7
			h18.8v8.6c1.5-3.2,3.9-5.6,7-7c3.2-1.4,6.3-2.2,9.5-2.2C785,75.1,786.7,75.3,788.1,75.7z"/>
		<path class="st1" d="M863.9,75.7L839,102.4l25.3,36.8h-23.8l-15-22.4l-6.3,6.8v15.6h-19.4V46.7h19.4v50.4l19.3-21.4H863.9z"/>
	</g>
	<g>
		<path class="st2" d="M158.7,62.1l-75.3,75.3c-4.3,4.3-11.3,4.3-15.6,0l0,0c-4.3-4.3-4.3-11.3,0-15.6l75.3-75.3
			c4.3-4.3,11.3-4.3,15.6,0l0,0C163,50.8,163,57.8,158.7,62.1z"/>
		<path class="st1" d="M132,88.8l-23.9,23.9c-4.3,4.3-11.3,4.3-15.6,0l0,0c-4.3-4.3-4.3-11.3,0-15.6l23.9-23.9
			c4.3-4.3,11.3-4.3,15.6,0l0,0C136.3,77.5,136.3,84.5,132,88.8z"/>
		<path class="st2" d="M120.1,54.7L74,100.8c-4.3,4.3-11.3,4.3-15.6,0l0,0c-4.3-4.3-4.3-11.3,0-15.6l46.1-46.1
			c4.3-4.3,11.3-4.3,15.6,0l0,0C124.4,43.5,124.4,50.5,120.1,54.7z"/>
		<path class="st1" d="M104,70.9L90.2,84.7c-4.3,4.3-11.3,4.3-15.6,0l0,0c-4.3-4.3-4.3-11.3,0-15.6l13.8-13.8
			c4.3-4.3,11.3-4.3,15.6,0l0,0C108.3,59.6,108.3,66.6,104,70.9z"/>
		<path class="st2" d="M166.1,99.7L120,145.8c-4.3,4.3-11.3,4.3-15.6,0l0,0c-4.3-4.3-4.3-11.3,0-15.6l46.1-46.1
			c4.3-4.3,11.3-4.3,15.6,0l0,0C170.4,88.5,170.4,95.5,166.1,99.7z"/>
		<path class="st1" d="M146.1,119.7l-6.1,6.1c-4.3,4.3-11.3,4.3-15.6,0l0,0c-4.3-4.3-4.3-11.3,0-15.6l6.1-6.1
			c4.3-4.3,11.3-4.3,15.6,0l0,0C150.4,108.5,150.4,115.5,146.1,119.7z"/>
	</g>
</g>
</svg>
